<?xml version="1.0" encoding="UTF-8"?>
<svg id="Layer_1" xmlns="http://www.w3.org/2000/svg" version="1.1" viewBox="0 0 800 800">
  <!-- Generator: Adobe Illustrator 29.8.2, SVG Export Plug-In . SVG Version: 2.1.1 Build 3)  -->
  <defs>
    <style>
      .st0 {
        fill: #231f20;
        fill-rule: evenodd;
      }
    </style>
  </defs>
  <g id="SVGRepo_iconCarrier">
    <path class="st0" d="M694.92,62.62c-39.05-39.05-102.37-39.05-141.42,0L81.58,534.54c-13.96,13.96-23.48,31.74-27.35,51.1l-19.57,97.85c-9.33,46.65,31.8,87.78,78.45,78.45l97.84-19.57c19.36-3.87,37.14-13.39,51.1-27.35l471.92-471.92c39.05-39.05,39.05-102.37,0-141.42l-39.05-39.05ZM600.64,109.76c13.02-13.02,34.12-13.02,47.14,0l39.05,39.05c13.02,13.02,13.02,34.12,0,47.14l-89.05,89.05-86.19-86.19,89.05-89.05ZM464.45,245.96l-335.72,335.73c-4.65,4.65-7.83,10.58-9.12,17.03l-19.57,97.84,97.84-19.57c6.45-1.29,12.38-4.46,17.03-9.11l335.73-335.73-86.19-86.19Z"/>
  </g>
</svg>