<?xml version="1.0" encoding="UTF-8"?>
<svg id="Layer_1" xmlns="http://www.w3.org/2000/svg" version="1.1" viewBox="0 0 800 800">
  <!-- Generator: Adobe Illustrator 29.8.2, SVG Export Plug-In . SVG Version: 2.1.1 Build 3)  -->
  <defs>
    <style>
      .st0 {
        fill-rule: evenodd;
      }
    </style>
  </defs>
  <g id="SVGRepo_iconCarrier">
    <path class="st0" d="M356.9,143.1c-13.02-13.02-34.12-13.02-47.14,0l-133.33,133.33c-13.02,13.02-13.02,34.12,0,47.14l133.33,133.33c13.02,13.02,34.12,13.02,47.14,0s13.02-34.12,0-47.14l-76.43-76.43h169.53c64.43,0,116.67,52.23,116.67,116.67s-52.23,116.67-116.67,116.67h-83.33c-18.41,0-33.33,14.92-33.33,33.33s14.92,33.33,33.33,33.33h83.33c101.25,0,183.33-82.08,183.33-183.33s-82.08-183.33-183.33-183.33h-169.53l76.43-76.43c13.02-13.02,13.02-34.12,0-47.14Z"/>
  </g>
</svg>