<?xml version="1.0" encoding="UTF-8"?>
<svg id="Layer_1" xmlns="http://www.w3.org/2000/svg" version="1.1" viewBox="0 0 800 800">
  <!-- Generator: Adobe Illustrator 29.8.2, SVG Export Plug-In . SVG Version: 2.1.1 Build 3)  -->
  <defs>
    <style>
      .st0, .st1 {
        fill: #231f20;
      }

      .st1 {
        fill-rule: evenodd;
      }
    </style>
  </defs>
  <g id="SVGRepo_iconCarrier">
    <path class="st1" d="M185.3,533.98l188.48,185.17c51.55,50.64,139.68,14.77,139.68-56.84V137.69c0-71.62-88.14-107.49-139.68-56.84l-188.48,185.17h-87.02c-38.5,0-69.7,30.66-69.7,68.48v131.01c0,37.82,31.21,68.48,69.7,68.48h87.02ZM216.62,480.54l200.01,196.51c13.37,13.13,36.21,3.83,36.21-14.74V137.69c0-18.57-22.85-27.87-36.21-14.74l-200.01,196.51c-3.98,3.91-6.21,9.21-6.21,14.74v131.6c0,5.53,2.23,10.83,6.21,14.74ZM149.79,325.57h-51.52c-5.02,0-9.09,4-9.09,8.93v131.01c0,4.93,4.07,8.93,9.09,8.93h51.52v-148.87Z"/>
    <path class="st0" d="M649.82,638.18c-13.21-10.09-15.49-28.75-6.15-42.39,79.64-116.38,96.85-265.37,5.06-375.96-10.58-12.74-10.74-31.51,1.1-43.13,11.84-11.63,31.18-11.67,42.01.87,119.34,138.17,92.12,321.78-.24,454.84-9.43,13.59-28.55,15.87-41.77,5.78Z"/>
    <path class="st0" d="M594.9,389.89c-1.14-31.36-9.03-58.29-19.9-77.24-8.21-14.33-11-33.48-.95-46.64,10.04-13.15,29.32-15.89,39.8-3.07,26.46,32.37,39.98,79.54,41.62,124.82,1.76,48.4-9.63,102.05-40.46,144.55-9.71,13.39-29.13,13.29-40.97,1.67-11.84-11.63-11.53-30.43-2.89-44.51,17.25-28.09,25.04-63.84,23.74-99.57Z"/>
  </g>
</svg>