<?xml version="1.0" encoding="UTF-8"?>
<svg id="Layer_1" xmlns="http://www.w3.org/2000/svg" version="1.1" viewBox="0 0 800 800">
  <!-- Generator: Adobe Illustrator 29.8.2, SVG Export Plug-In . SVG Version: 2.1.1 Build 3)  -->
  <defs>
    <style>
      .st0 {
        fill: #231f20;
        fill-rule: evenodd;
      }
    </style>
  </defs>
  <g id="SVGRepo_iconCarrier">
    <path class="st0" d="M456.27,138.08l32.11,32.11c9.76,9.76,9.76,25.59,0,35.36-9.76,9.76-25.59,9.76-35.35,0l-32.14-32.14-35.36,35.36,55.71,55.71c9.76,9.76,9.76,25.59,0,35.36-9.76,9.76-25.59,9.76-35.35,0l-55.71-55.71-35.36,35.36,32.14,32.14c9.76,9.76,9.76,25.59,0,35.36-9.76,9.76-25.59,9.76-35.36,0l-32.14-32.14-35.36,35.36,55.71,55.71c9.76,9.76,9.76,25.59,0,35.35-9.76,9.76-25.59,9.76-35.36,0l-55.71-55.71-35.36,35.36,32.14,32.14c9.76,9.76,9.76,25.59,0,35.35-9.76,9.76-25.59,9.76-35.36,0l-32.11-32.11c-15.48,15.62-26.64,27.37-34.49,37.66-9.67,12.67-11.92,20.13-11.92,26.59s2.25,13.92,11.92,26.59c10.11,13.25,25.71,28.92,48.94,52.15l48.21,48.21c23.23,23.23,38.9,38.83,52.15,48.94,12.67,9.67,20.13,11.92,26.59,11.92s13.92-2.25,26.59-11.92c13.25-10.11,28.92-25.71,52.15-48.94l289.26-289.26c23.23-23.23,38.83-38.9,48.94-52.15,9.67-12.67,11.92-20.13,11.92-26.59s-2.25-13.92-11.92-26.59c-10.11-13.25-25.71-28.93-48.94-52.15l-48.21-48.21c-23.23-23.23-38.9-38.83-52.15-48.94-12.67-9.67-20.14-11.92-26.59-11.92s-13.92,2.25-26.59,11.92c-10.29,7.85-22.04,19.01-37.66,34.49ZM463.6,63.84c17.12-13.06,35.14-22.17,56.92-22.17s39.8,9.11,56.92,22.17c16.24,12.39,34.27,30.42,55.95,52.1l50.67,50.67c21.68,21.68,39.71,39.71,52.1,55.95,13.06,17.12,22.17,35.14,22.17,56.92s-9.11,39.8-22.17,56.92c-12.39,16.23-30.42,34.27-52.1,55.95l-291.72,291.72c-21.68,21.68-39.71,39.71-55.95,52.1-17.12,13.06-35.14,22.17-56.92,22.17s-39.8-9.11-56.92-22.17c-16.23-12.39-34.27-30.42-55.95-52.1l-50.67-50.67c-21.68-21.68-39.72-39.71-52.1-55.95-13.06-17.12-22.17-35.13-22.17-56.92s9.11-39.8,22.17-56.92c12.39-16.23,30.42-34.27,52.1-55.95L407.66,115.94c21.68-21.68,39.71-39.72,55.95-52.1Z"/>
  </g>
</svg>